<svg xmlns="http://www.w3.org/2000/svg" aria-hidden="true" style="position:absolute;width:0;height:0;overflow:hidden"><defs><symbol id="icon-facebook" viewBox="0 0 32 32"><path fill="#fcf9f9" d="M19.52 4.64h.96v3.6h-1.2c-.48 0-.96 0-1.2.24s-.24.48-.24 1.04v1.28h2.64v3.04h-2.64v13.2h-4.08V13.76H11.6v-3.04h2.16V9.68c0-1.76.24-3.04.72-3.6.72-1.04 2.16-1.52 4.32-1.52.24.08.48.08.72.08z" opacity=".8" style="fill:var(--color1, #fcf9f9)"/></symbol><symbol id="icon-youtube" viewBox="0 0 32 32"><path fill="#fcf9f9" d="M24.24 6c-1.36-.08-4.16-.16-8.4-.16h-.56c-4.08 0-6.8.08-8.16.24-1.84.16-3.12.64-3.84 1.28-.64.56-1.12 1.6-1.28 2.96-.08.88-.16 2.72-.16 5.52v.4c0 2.64.08 4.48.24 5.36.24 1.28.64 2.24 1.44 2.8.8.64 2.16 1.04 4.08 1.2 1.36.08 4.16.16 8.4.16h.56c4.08 0 6.8-.08 8.16-.24 1.84-.16 3.12-.64 3.84-1.28.64-.56 1.12-1.6 1.28-2.96.08-.88.16-2.72.16-5.52v-.4c0-2.64-.08-4.48-.24-5.36-.24-1.28-.64-2.24-1.44-2.8-.8-.64-2.16-1.04-4.08-1.2zm-3.12 9.84-8.8 5.28V10.56l8.8 5.28z" opacity=".8" style="fill:var(--color1, #fcf9f9)"/></symbol><symbol id="icon-instagram" viewBox="0 0 32 32"><path fill="#fcf9f9" d="M28.717 10.756a9.264 9.264 0 0 0-.596-3.145 6.547 6.547 0 0 0-3.743-3.737 9.42 9.42 0 0 0-3.108-.596c-1.368-.061-1.801-.078-5.273-.078s-3.917 0-5.274.078a9.418 9.418 0 0 0-3.106.596 6.541 6.541 0 0 0-3.743 3.737 9.288 9.288 0 0 0-.596 3.101c-.061 1.367-.08 1.8-.08 5.265s0 3.909.08 5.265a9.335 9.335 0 0 0 .596 3.104 6.548 6.548 0 0 0 3.744 3.735 9.37 9.37 0 0 0 3.106.639c1.369.061 1.803.08 5.274.08s3.916 0 5.274-.08a9.357 9.357 0 0 0 3.108-.595 6.555 6.555 0 0 0 3.743-3.737 9.35 9.35 0 0 0 .596-3.104c.061-1.365.08-1.798.08-5.265-.003-3.466-.003-3.906-.082-5.264zM15.99 22.531c-3.631 0-6.572-2.936-6.572-6.561s2.941-6.561 6.572-6.561c3.628 0 6.572 2.936 6.572 6.561s-2.944 6.561-6.572 6.561zm6.833-11.835a1.53 1.53 0 1 1 0-3.06 1.53 1.53 0 1 1 0 3.06z" opacity=".8" style="fill:var(--color1, #fcf9f9)"/><path fill="#fcf9f9" d="M15.992 19.976a4.004 4.004 0 1 0 0-8.009 4.004 4.004 0 0 0 0 8.009z" opacity=".8" style="fill:var(--color1, #fcf9f9)"/></symbol><symbol id="icon-menu" viewBox="0 0 32 32"><path fill="none" stroke="#ecd979" stroke-linecap="round" stroke-width="2.182" d="M5.961 8.628H30.91M5.961 21.851H30.91M13.613 15.24h17.296" style="stroke:var(--color2, #ecd979)"/></symbol><symbol id="icon-close" viewBox="0 0 32 32"><path stroke-linecap="round" stroke-linejoin="round" stroke-width="2.182" d="M24 8 8 24M8 8l16 16"/></symbol><symbol id="icon-untitled" viewBox="0 0 32 32"><path fill="#ecd979" d="M27.766 17.957a42.712 42.712 0 0 1-.337-3.49c-.022-1.04.017-1.94.119-2.7L2.255 26.37l-1.197-2.073L26.351 9.694a22.284 22.284 0 0 1-2.426-1.297A48.166 48.166 0 0 1 21.1 6.409l1.519-.877c3.209 1.349 6.143 2.024 8.804 2.023l.513.888c-1.35 2.271-2.233 5.149-2.65 8.636l-1.519.877z" style="fill:var(--color2, #ecd979)"/></symbol><symbol id="icon-star" viewBox="0 0 32 32"><path fill="#ecd979" d="M15.685.183a.363.363 0 0 1 .63 0l2.206 3.831a.364.364 0 0 0 .52.119l3.69-2.517a.364.364 0 0 1 .568.277l.288 4.371a.363.363 0 0 0 .42.335l4.43-.7a.364.364 0 0 1 .393.498l-1.673 4.045c-.083.2.027.428.235.488l4.284 1.245c.275.08.354.431.14.621l-3.299 2.932a.364.364 0 0 0 0 .544l3.299 2.932a.363.363 0 0 1-.14.621l-4.284 1.245a.364.364 0 0 0-.235.488l1.673 4.045a.363.363 0 0 1-.393.498l-4.43-.7a.364.364 0 0 0-.42.335l-.288 4.371a.363.363 0 0 1-.568.276l-3.69-2.517a.364.364 0 0 0-.52.119l-2.206 3.831a.363.363 0 0 1-.63 0l-2.206-3.831a.364.364 0 0 0-.52-.119l-3.69 2.517a.364.364 0 0 1-.568-.276l-.288-4.371a.363.363 0 0 0-.42-.335l-4.43.7a.364.364 0 0 1-.393-.498l1.673-4.045a.363.363 0 0 0-.235-.488L.324 19.825a.363.363 0 0 1-.14-.621l3.299-2.932a.364.364 0 0 0 0-.544L.184 12.796a.363.363 0 0 1 .14-.621l4.284-1.245a.364.364 0 0 0 .235-.488L3.17 6.397a.364.364 0 0 1 .393-.498l4.43.7a.364.364 0 0 0 .42-.335l.288-4.371a.364.364 0 0 1 .568-.277l3.69 2.517a.364.364 0 0 0 .52-.119L15.685.183z" style="fill:var(--color2, #ecd979)"/></symbol><symbol id="icon-logo" viewBox="0 0 32 32"><path fill="#ecd979" d="M13.992 11.937h-.998v-1.012h.998v1.012zM12.994 11.937h-.998v-1.012h.998v1.012zM8.004 11.937h-.998v-1.012h.998v1.012z" style="fill:var(--color2, #ecd979)"/><path fill="#ecd979" d="M7.006 11.937h-.998v-1.012h.998v1.012zM6.008 11.937H5.01v-1.012h.998v1.012zM25.969 10.925h-.998V9.913h.998v1.012zM24.971 10.925h-.998V9.913h.998v1.012zM17.984 10.925h-.998V9.913h.998v1.012zM16.986 10.925h-.998V9.913h.998v1.012zM14.99 10.925h-.998V9.913h.998v1.012zM13.992 10.925h-.998V9.913h.998v1.012z" style="fill:var(--color2, #ecd979)"/><path fill="#ecd979" d="M7.006 10.925h-.998V9.913h.998v1.012zM6.008 10.925H5.01V9.913h.998v1.012zM25.969 9.913h-.998V8.901h.998v1.012zM16.986 9.913h-.998V8.901h.998v1.012zM14.99 9.913h-.998V8.901h.998v1.012zM6.008 9.913H5.01V8.901h.998v1.012zM30.959 8.901h-.998V7.889h.998v1.012zM1.018 8.901H.02V7.889h.998v1.012zM30.959 7.889h-.998V6.877h.998v1.012zM29.961 7.889h-.998V6.877h.998v1.012zM20.979 7.889h-.998V6.877h.998v1.012zM19.98 7.889h-.998V6.877h.998v1.012zM18.982 7.889h-.998V6.877h.998v1.012zM12.994 7.889h-.998V6.877h.998v1.012zM11.996 7.889h-.998V6.877h.998v1.012zM10.998 7.889H10V6.877h.998v1.012zM2.016 7.889h-.998V6.877h.998v1.012zM1.018 7.889H.02V6.877h.998v1.012z" style="fill:var(--color2, #ecd979)"/><path fill="#ecd979" d="M30.959 6.877h-.998V5.865h.998v1.012zM29.961 6.877h-.998V5.865h.998v1.012z" style="fill:var(--color2, #ecd979)"/><path fill="#ecd979" d="M28.963 6.877h-.998V5.865h.998v1.012zM21.977 6.877h-.998V5.865h.998v1.012zM20.979 6.877h-.998V5.865h.998v1.012zM19.98 6.877h-.998V5.865h.998v1.012zM16.986 6.877h-.998V5.865h.998v1.012zM14.99 6.877h-.998V5.865h.998v1.012zM11.996 6.877h-.998V5.865h.998v1.012zM10.998 6.877H10V5.865h.998v1.012zM10 6.877h-.998V5.865H10v1.012zM3.014 6.877h-.998V5.865h.998v1.012zM2.016 6.877h-.998V5.865h.998v1.012zM1.018 6.877H.02V5.865h.998v1.012z" style="fill:var(--color2, #ecd979)"/><path fill="#ecd979" d="M29.961 5.866h-.998V4.854h.998v1.012z" style="fill:var(--color2, #ecd979)"/><path fill="#ecd979" d="M28.963 5.866h-.998V4.854h.998v1.012zM27.965 5.866h-.998V4.854h.998v1.012zM22.975 5.866h-.998V4.854h.998v1.012zM21.977 5.866h-.998V4.854h.998v1.012zM20.979 5.866h-.998V4.854h.998v1.012zM17.984 5.866h-.998V4.854h.998v1.012zM16.986 5.866h-.998V4.854h.998v1.012zM14.99 5.866h-.998V4.854h.998v1.012zM13.992 5.866h-.998V4.854h.998v1.012zM10.998 5.866H10V4.854h.998v1.012zM10 5.866h-.998V4.854H10v1.012zM9.002 5.866h-.998V4.854h.998v1.012zM4.012 5.866h-.998V4.854h.998v1.012z" style="fill:var(--color2, #ecd979)"/><path fill="#ecd979" d="M3.014 5.866h-.998V4.854h.998v1.012zM2.016 5.866h-.998V4.854h.998v1.012zM28.963 4.854h-.998V3.842h.998v1.012zM27.965 4.854h-.998V3.842h.998v1.012zM26.967 4.854h-.998V3.842h.998v1.012zM18.982 4.854h-.998V3.842h.998v1.012z" style="fill:var(--color2, #ecd979)"/><path fill="#ecd979" d="M17.984 4.854h-.998V3.842h.998v1.012zM16.986 4.854h-.998V3.842h.998v1.012zM14.99 4.854h-.998V3.842h.998v1.012zM13.992 4.854h-.998V3.842h.998v1.012zM12.994 4.854h-.998V3.842h.998v1.012zM5.01 4.854h-.998V3.842h.998v1.012zM4.012 4.854h-.998V3.842h.998v1.012z" style="fill:var(--color2, #ecd979)"/><path fill="#ecd979" d="M3.014 4.854h-.998V3.842h.998v1.012zM31.957 3.842h-.998V2.83h.998v1.012zM27.965 3.842h-.998V2.83h.998v1.012zM26.967 3.842h-.998V2.83h.998v1.012z" style="fill:var(--color2, #ecd979)"/><path fill="#ecd979" d="M25.969 3.842h-.998V2.83h.998v1.012zM18.982 3.842h-.998V2.83h.998v1.012z" style="fill:var(--color2, #ecd979)"/><path fill="#ecd979" d="M17.984 3.842h-.998V2.83h.998v1.012zM13.992 3.842h-.998V2.83h.998v1.012zM12.994 3.842h-.998V2.83h.998v1.012zM6.008 3.842H5.01V2.83h.998v1.012zM5.01 3.842h-.998V2.83h.998v1.012zM4.012 3.842h-.998V2.83h.998v1.012zM31.957 2.83h-.998V1.818h.998V2.83zM30.959 2.83h-.998V1.818h.998V2.83zM26.967 2.83h-.998V1.818h.998V2.83z" style="fill:var(--color2, #ecd979)"/><path fill="#ecd979" d="M25.969 2.83h-.998V1.818h.998V2.83zM24.971 2.83h-.998V1.818h.998V2.83zM18.982 2.83h-.998V1.818h.998V2.83zM12.994 2.83h-.998V1.818h.998V2.83zM7.006 2.83h-.998V1.818h.998V2.83zM6.008 2.83H5.01V1.818h.998V2.83zM5.01 2.83h-.998V1.818h.998V2.83zM1.018 2.83H.02V1.818h.998V2.83z" style="fill:var(--color2, #ecd979)"/></symbol></defs></svg>